<svg width="150" height="150" viewBox="0 0 150 150" fill="none" xmlns="http://www.w3.org/2000/svg">
<path d="M75.0019 0C33.6434 0 0 33.6504 0 75.0032C0 116.342 33.6434 150 75.0019 150C116.366 150 150 116.342 150 75.0032C150 33.6504 116.366 0 75.0019 0ZM75.0019 3.1472C114.63 3.1472 146.848 35.376 146.848 75.0032C146.848 114.614 114.63 146.848 75.0019 146.848C35.3829 146.848 3.14183 114.614 3.14183 75.0032C3.14183 35.376 35.3829 3.1472 75.0019 3.1472ZM68.1023 7.708V8.3788C68.6582 8.4228 69.0114 8.4552 69.1158 8.4772L69.3734 8.6172L69.4934 8.8748C69.5214 8.9924 69.5378 9.2532 69.5378 9.6504L69.581 11.9644V14.5336C69.581 15.2456 69.5626 15.824 69.5378 16.2704C69.5234 16.7602 69.4884 17.2491 69.433 17.736L69.329 18.032L69.1762 18.1328C69.0914 18.1628 68.729 18.1768 68.1019 18.226V18.9132C68.995 18.8748 69.6878 18.8536 70.2138 18.8536C70.3398 18.8536 70.9177 18.8536 71.9393 18.8752V18.226L71.7781 18.2344L71.0249 18.1636L70.7425 18.07L70.6385 17.9272C70.5949 17.7904 70.5593 17.4264 70.5401 16.8044C70.5129 15.9172 70.4993 15.0484 70.4993 14.208V10.236C73.6684 14.084 76.1026 16.9768 77.8309 18.9132C78.2829 18.96 78.7461 19.0364 79.1981 19.1104L79.2965 19.0364C79.2197 18.2804 79.1981 16.128 79.1981 12.5808C79.1981 12.1208 79.2005 11.4252 79.2197 10.4804C79.2525 9.5188 79.3077 8.902 79.3817 8.6416L79.4741 8.5244C79.5948 8.456 79.9844 8.398 80.6388 8.3788V7.708C79.7952 7.7352 79.1189 7.7492 78.5929 7.7492C78.0449 7.7492 77.4582 7.7356 76.7954 7.708V8.3788C77.505 8.3924 77.9349 8.4556 78.0445 8.538L78.2005 8.924C78.2445 9.4336 78.2829 11.118 78.2829 13.986V15.8348C77.543 15.0868 76.6202 14.0188 75.4891 12.6548C73.9196 10.8004 72.6052 9.1624 71.5017 7.708L70.7621 7.736L69.5974 7.7492C69.2798 7.7492 68.7818 7.7352 68.1023 7.708ZM65.2404 8.1464L63.4985 8.5984L63.2897 8.6664C63.1174 8.702 62.5362 8.8148 61.5778 8.9928L61.7234 9.6504C62.3154 9.5184 62.7034 9.4856 62.909 9.5484L63.1306 9.6884C63.2237 9.8144 63.3561 10.2064 63.5229 10.858C63.5997 11.1596 63.7997 12.014 64.1229 13.3892L64.4865 15.0052C64.7605 16.1144 64.8484 16.9036 64.7445 17.35C64.6565 17.7908 64.4261 18.1772 64.0429 18.5416C63.6785 18.8756 63.1177 19.1576 62.389 19.322C61.7426 19.4672 61.2171 19.4948 60.7539 19.396C60.3019 19.322 59.9403 19.144 59.6775 18.8752C59.3979 18.6344 59.184 18.254 59.0256 17.7692C58.9404 17.5528 58.7948 16.9604 58.5784 16.0044L58.3484 15.0872L57.9212 13.2576C57.6665 12.1428 57.5329 11.4248 57.5329 11.0852L57.62 10.7648C57.7572 10.6276 58.1048 10.5068 58.672 10.3672L58.5076 9.7076L58.22 9.7868L57.1713 10.0528L56.1033 10.3344L53.5335 10.8744L53.6975 11.524L54.7474 11.386L54.9794 11.5568L55.1878 12.0248C55.3686 12.6248 55.5302 13.2628 55.7058 14.0188L56.1709 16.0188L56.5273 17.5228C56.7193 18.366 56.8425 18.8532 56.9217 19.048L57.4445 19.9384C57.6908 20.2176 58.0036 20.4472 58.3844 20.6388C58.7624 20.8444 59.2304 20.9488 59.7699 20.9952C60.5459 21.0442 61.3247 20.9733 62.079 20.7848C62.761 20.626 63.3421 20.4176 63.8349 20.1488C64.3201 19.8724 64.7197 19.5544 65.032 19.1928C65.336 18.8064 65.5496 18.4092 65.6728 18.0176C65.8068 17.5984 65.8424 17.1444 65.7928 16.6184C65.7436 16.1036 65.6728 15.5992 65.5496 15.128L65.1192 13.2628C64.9904 12.7368 64.8433 11.978 64.6569 11.0328C64.4761 10.0796 64.3805 9.5348 64.4021 9.4008L64.4945 9.1264C64.6041 9.0144 64.9057 8.9024 65.3904 8.8008L65.2404 8.1464ZM83.2898 8.3784L83.1943 9.0556C83.7474 9.1624 84.0734 9.2312 84.161 9.264L84.3334 9.3792L84.3746 9.5484C84.3798 9.7076 84.3494 10.1236 84.2894 10.77C84.2562 11.0796 84.1614 11.734 84.0078 12.75L83.5314 15.9552C83.4486 16.5223 83.3405 17.0854 83.2075 17.6428C83.1091 18.07 83.0627 18.5216 83.0355 18.5764L82.9583 18.6916L82.7115 18.7468C82.6295 18.7468 82.3071 18.7244 81.7975 18.6588L81.6847 19.3304C82.3283 19.3988 83.0711 19.4968 83.8926 19.62C84.8462 19.7652 85.7333 19.9028 86.5633 20.07L86.6701 19.398C86.1633 19.3076 85.8565 19.242 85.7549 19.1928L85.5465 19.0888L85.4625 18.9132C85.4405 18.7408 85.4617 18.1632 85.5465 17.6428L85.7333 16.2292L86.1873 13.1364C86.2121 13.0544 86.3169 12.3564 86.5305 11.1044C86.5881 10.7296 86.6481 10.4884 86.6705 10.354L86.8201 9.8772L86.9168 9.7704L87.1356 9.7048C87.2424 9.6884 87.5436 9.7128 88.0556 9.7868L88.174 9.11C87.3248 9.006 86.4425 8.8884 85.5085 8.7596C84.6786 8.6256 83.939 8.51 83.2898 8.3788V8.3784ZM90.6986 9.6504L90.493 10.28C90.9558 10.4496 91.2382 10.6028 91.359 10.7288C91.441 10.8108 91.5202 11.0848 91.5858 11.5176C91.6458 11.964 91.7642 13.3176 91.9422 15.5472L92.161 18.4396C92.2406 19.4944 92.3262 20.6252 92.3969 21.7976L93.5333 22.1788C94.1141 21.4228 95.158 20.1548 96.6835 18.41L98.4862 16.3524L99.423 15.2896C100.181 14.402 100.655 13.9508 100.828 13.874C100.926 13.8492 101.219 13.874 101.701 14.0188L101.921 13.3564L100.302 12.8716L98.4366 12.2076L98.223 12.8468L99.017 13.1724L99.275 13.2876L99.351 13.422L99.3262 13.6192L99.2554 13.8084C99.1378 13.9864 98.8642 14.3444 98.453 14.862C97.8506 15.5988 97.5379 16.0124 97.4643 16.1028L94.4484 19.6344L94.0901 14.4348V14.2788C94.0901 14.2348 94.0701 13.9508 94.0345 13.4388C93.9633 12.5372 93.9525 12 94.0101 11.8576L94.1332 11.6936L94.396 11.6636C94.6096 11.6828 94.9192 11.756 95.3164 11.8876L95.5416 11.2412L92.8545 10.4116C92.5969 10.3348 91.8818 10.072 90.6986 9.6504ZM104.276 14.4656L103.931 15.0576C104.448 15.3996 104.749 15.6136 104.831 15.7392L104.881 15.9172C104.873 16.0372 104.711 16.3688 104.44 16.892C104.008 17.6588 103.758 18.1192 103.684 18.226L101.92 21.2748C101.712 21.6252 101.368 22.1788 100.885 22.9348C100.631 23.3348 100.419 23.6388 100.288 23.8088L99.4002 23.8272L99.1866 24.1872C100.608 24.9648 101.362 25.3972 101.46 25.4656C101.874 25.6876 102.616 26.1208 103.663 26.7588L104.749 27.4268C105.283 27.736 105.697 27.9476 106.015 28.0736L106.138 28.0456C106.489 27.4544 106.957 26.7584 107.579 25.9256L107.029 25.5972C106.577 26.1588 106.259 26.5172 106.048 26.6872L105.887 26.7444C105.766 26.758 105.484 26.6656 105.057 26.4468C104.584 26.2175 104.119 25.9726 103.663 25.7124C103.167 25.422 102.745 25.17 102.403 24.9232L102.86 24.08L104.517 21.204C104.816 21.352 105.188 21.5568 105.632 21.7976C106.105 22.08 106.503 22.3456 106.779 22.5648L106.983 22.902C106.983 23.0716 106.829 23.4308 106.506 23.9404L107.089 24.2772L107.927 22.7652L108.823 21.2944L108.264 20.984C108.034 21.368 107.823 21.656 107.661 21.7872L107.5 21.8664L107.037 21.6744C106.388 21.3212 106.015 21.1052 105.9 21.0396L104.955 20.4728L105.766 19.0728C106.213 18.2836 106.637 17.6424 106.991 17.1876C107.415 17.4012 107.848 17.5984 108.256 17.8532C108.672 18.1 109.105 18.3684 109.513 18.6916L110.003 19.1104V19.2912C109.951 19.434 109.782 19.7684 109.488 20.3052L110.014 20.6092C110.392 20.0532 110.606 19.7356 110.649 19.6892L111.346 18.78V18.6588L111.134 18.4892C110.66 18.1772 110.346 17.9824 110.17 17.8972L108.782 17.122C108.087 16.7381 107.397 16.3463 106.711 15.9468L105.815 15.4352L104.276 14.4656ZM41.9997 16.9444C41.5317 16.9964 40.913 17.1884 40.1786 17.4484C39.3942 17.7455 38.6425 18.1229 37.9355 18.5744C37.3603 18.919 36.8247 19.3258 36.3384 19.7876C35.8756 20.2176 35.5061 20.6884 35.1825 21.2388C34.8653 21.7704 34.6537 22.3588 34.5225 22.9728C34.392 23.6041 34.3903 24.2553 34.5177 24.8872C34.6357 25.542 34.9121 26.216 35.3529 26.912C35.8704 27.742 36.5004 28.4048 37.2396 28.876C37.7135 29.1936 38.2675 29.4076 38.8779 29.5444C39.5106 29.6924 40.1626 29.7088 40.8582 29.6184C41.8441 29.4624 42.8329 29.0892 43.83 28.4372C44.4568 28.0564 45.0267 27.6072 45.5635 27.106C46.1003 26.5992 46.6926 25.926 47.3362 25.0908L46.6183 24.0964C46.4815 23.8744 46.2763 23.4988 45.9559 22.9644L45.7967 22.5596L46.1715 22.0176L45.8923 21.5788L43.8984 22.872L41.8905 24.0964L42.2193 24.6224C42.9449 24.2332 43.3892 24.0112 43.5728 23.9784H43.8296C43.9092 24.0248 44.0876 24.2684 44.3504 24.6984L44.7368 25.3208L45.1363 26.0212L44.4684 26.8492L43.6652 27.482C42.6413 28.1228 41.5325 28.2676 40.3274 27.9472C39.1387 27.6076 38.1307 26.7832 37.3036 25.4656C36.5476 24.2356 36.2836 23.0936 36.5168 21.9764C36.7548 20.8672 37.4264 19.9596 38.5495 19.2584C39.0287 18.96 39.483 18.7516 39.935 18.634C40.3519 18.5023 40.7879 18.4412 41.2249 18.4532L41.7981 18.5632L42.1761 19.0264L42.6085 19.6344L43.1372 19.3076C42.6089 18.2532 42.2657 17.4916 42.1205 17.0316L41.9997 16.9444ZM114.281 20.4416L113.887 20.9328C114.341 21.3876 114.602 21.6768 114.671 21.7976V21.9764C114.635 22.0996 114.396 22.4196 113.999 22.9348L112.981 24.2332L111.132 26.4732L109.617 28.2104L108.971 28.84L108.792 28.9828L108.628 28.9496C108.532 28.9224 108.23 28.714 107.757 28.3496L107.325 28.8756C107.923 29.3317 108.512 29.8002 109.091 30.2808C109.8 30.8616 110.486 31.4564 111.165 32.0344L111.594 31.5136C111.21 31.1848 111 30.9796 110.926 30.884L110.795 30.6784L110.789 30.5408L111.091 30.0476C111.182 29.9164 111.548 29.4484 112.217 28.5916C112.77 27.9148 113.285 27.2676 113.778 26.6652C114.104 26.2792 114.75 25.5428 115.694 24.4172C116.122 23.9212 116.415 23.6132 116.536 23.4492L117.149 23.8908C117.595 24.236 117.87 24.5148 117.985 24.7392C118.169 25.038 118.242 25.3992 118.229 25.7912C118.204 26.1664 118.026 26.5696 117.724 26.92C117.426 27.2732 117.067 27.5392 116.656 27.6924C116.237 27.876 115.853 27.906 115.53 27.8076C115.185 27.7364 114.766 27.482 114.314 27.0628L114.074 27.1996L114.128 27.9144C114.09 28.476 114.007 29.2208 113.887 30.1248L113.408 33.3248L113.273 33.7848L114.251 34.554C114.542 34.7812 114.972 35.1676 115.591 35.6796L115.996 35.1756L115.643 34.8252L115.571 34.51C115.566 34.3756 115.59 34.0036 115.612 33.338C115.612 33.2996 115.643 32.9924 115.709 32.4144L115.933 30.2236L115.949 30.054L116.004 29.5248L116.122 28.6868C116.946 28.9688 117.674 29.0404 118.288 28.8868C118.926 28.7448 119.433 28.4268 119.831 27.9308C120.184 27.52 120.353 27.0924 120.378 26.6212C120.4 26.1416 120.277 25.7312 120.041 25.4C119.803 25.0384 119.362 24.6032 118.735 24.08C118.406 23.8088 117.984 23.488 117.475 23.094C117.148 22.8692 116.779 22.5644 116.365 22.2168C115.864 21.8112 115.478 21.4968 115.226 21.2584C114.684 20.7844 114.377 20.5184 114.281 20.4416ZM75.1831 22.7896C49.6697 22.7896 27.7089 41.6096 23.7707 66.6872C23.2615 68.0872 21.6152 73.5008 24.2267 79.1692C24.2267 79.1692 21.7528 77.8792 20.6657 77.756C20.6657 77.756 19.9213 82.3 22.7176 85.546C22.7176 85.546 20.4521 85.124 17.9654 86.5156C17.9654 86.5156 20.5561 92.024 26.393 93.862C26.393 93.862 26.8209 94.9328 27.2533 95.6996C27.2533 95.6996 23.3723 95.0448 19.5869 96.6776C19.5869 96.6776 22.7172 100.132 23.9111 100.679C23.9111 100.679 26.8209 102.506 28.3381 102.73L27.1405 103.148C27.1405 103.148 32.553 110.387 37.4148 111.255C37.4148 111.255 33.9713 112.202 32.6622 113.849C32.6622 113.849 38.8227 119.568 46.9214 117.845C46.9214 117.845 45.1799 119.68 44.3252 121.524C44.3252 121.524 49.7185 123.03 55.1254 121.072L54.577 122.39C54.577 122.39 58.1408 123.124 63.3341 119.681L65.4888 121.201C65.4888 121.201 59.2312 122.269 55.1254 123.784L59.4444 126.92C59.4444 126.92 59.8827 126.468 62.7918 125.096C62.7918 125.096 70.9041 126.747 75.1799 126.594C79.4637 126.747 87.5656 125.096 87.5656 125.096C90.4911 126.468 90.9182 126.92 90.9182 126.92L95.226 123.784C91.131 122.269 84.8674 121.201 84.8674 121.201L87.0232 119.681C92.211 123.124 95.7748 122.39 95.7748 122.39L95.226 121.072C100.644 123.03 106.039 121.524 106.039 121.524C105.179 119.68 103.441 117.845 103.441 117.845C111.543 119.568 117.706 113.849 117.706 113.849C116.382 112.202 112.948 111.255 112.948 111.255C117.807 110.387 123.221 103.148 123.221 103.148L122.025 102.73C123.539 102.506 126.461 100.679 126.461 100.679C127.642 100.131 130.772 96.6776 130.772 96.6776C127.003 95.0448 123.112 95.6996 123.112 95.6996C123.54 94.9328 123.972 93.862 123.972 93.862C129.801 92.024 132.394 86.5156 132.394 86.5156C129.899 85.124 127.642 85.546 127.642 85.546C130.449 82.3 129.694 77.756 129.694 77.756C128.615 77.8792 126.125 79.1692 126.125 79.1692C128.901 73.1488 126.901 67.448 126.537 66.5092C122.519 41.5072 100.618 22.79 75.1827 22.79L75.1831 22.7896ZM29.784 24.4172C29.3605 24.9493 28.9294 25.4754 28.4908 25.9952C28.1157 26.3952 27.7161 26.8492 27.2529 27.3068L27.7545 27.7424C28.2421 27.2272 28.5544 26.9368 28.7076 26.9124L29.0856 27.0632C29.5044 27.3456 30.7999 28.4356 32.9606 30.3256L34.3465 31.544C33.2838 31.604 31.8767 31.6048 30.1208 31.5584C27.6805 31.5036 25.5602 31.4124 23.7659 31.2808L23.2927 31.8624L22.5416 32.7416C22.3472 32.9936 21.9908 33.3496 21.5116 33.8344L22.0324 34.2832C22.4268 33.886 22.6784 33.6512 22.7768 33.588L23.0459 33.4832L23.3139 33.5652L23.9139 34.0252L25.6918 35.5356L27.6197 37.2384C28.1597 37.7016 28.5892 38.0744 28.9016 38.3952C29.4548 38.9432 29.8112 39.304 29.932 39.4488L30.09 39.7232L30.0656 39.9072C30.0244 39.9864 29.8112 40.282 29.4192 40.7672L29.932 41.2272C30.4987 40.5424 30.9499 40.0052 31.2899 39.5968C31.3775 39.512 31.7639 39.08 32.435 38.3128L31.9503 37.896L31.8515 38.0172L31.3039 38.548L31.0679 38.6928L30.8819 38.6744C30.7419 38.6196 30.4379 38.3944 29.9588 38.0024C29.2708 37.4248 28.6084 36.8744 27.9897 36.3344L24.9954 33.6968C29.9776 33.8692 33.7662 33.9488 36.346 33.9136C36.702 33.604 37.0452 33.3136 37.4012 33.026L37.4144 32.8892C36.8008 32.4428 35.1629 31.0648 32.5006 28.72C32.161 28.4272 31.6351 27.948 30.9395 27.3068C30.2327 26.652 29.8116 26.2088 29.6688 25.9788L29.636 25.8308C29.6524 25.6884 29.882 25.3752 30.2903 24.8628L29.784 24.4172ZM75.1823 25.6272C99.5538 25.6272 120.499 43.802 123.884 67.9284L123.905 67.926C123.259 68.4744 122.681 69.0979 122.183 69.7832L121.049 71.6896C119.025 75.9104 119.534 80.5756 119.534 80.5756C115.218 76.6804 108.414 79.8356 108.414 79.8356C108.627 80.5756 110.898 82.3012 110.898 82.3012C111.002 90.4828 115.864 92.1396 115.864 92.1396C114.142 93.4296 113.705 94.8428 113.705 94.8428C111.213 91.6988 105.71 92.3612 105.71 92.3612C105.71 98.0724 111.761 100.886 111.761 100.886C111.213 103.365 111.542 104.572 111.542 104.572C109.496 105.536 107.231 108.352 107.231 108.352C107.871 102.282 105.711 100.236 105.711 100.236C102.04 102.406 100.534 106.504 100.534 106.504C94.3684 107.147 91.0182 111.58 91.0182 111.58L91.4518 109.629C80.0004 112.116 80.1044 120.205 80.1044 120.205L79.5752 120.002C78.9673 116.321 75.5463 116.406 75.1795 116.441C74.8179 116.406 71.4081 116.321 70.7865 120.002L70.2442 120.205C70.2442 120.205 70.3482 112.116 58.9048 109.629L59.332 111.58C59.332 111.58 55.9845 107.147 49.8301 106.504C49.8301 106.504 48.3182 102.406 44.6452 100.237C44.6452 100.237 42.4873 102.282 43.1364 108.352C43.1364 108.352 40.8686 105.536 38.8227 104.572C38.8227 104.572 39.1371 103.364 38.5975 100.886C38.5975 100.886 44.6452 98.0724 44.6452 92.3612C44.6452 92.3612 39.1367 91.6984 36.6552 94.8428C36.6552 94.8428 36.2152 93.4296 34.4921 92.1396C34.4921 92.1396 39.3534 90.4828 39.4602 82.3012C39.4602 82.3012 41.7229 80.5756 41.9501 79.836C41.9501 79.836 35.1325 76.6804 30.8295 80.5756C30.8295 80.5756 31.7475 72.2984 26.369 67.8488L26.4694 67.8632C29.8664 43.7724 50.8116 25.628 75.1831 25.628L75.1823 25.6272ZM75.0067 29.2952V29.3416L72.972 31.4564L72.862 35.2476C67.6991 36.1596 55.327 39.9728 60.0439 55.5856C60.0439 55.5856 41.6705 64.0024 42.7193 79.3524C42.7193 79.3524 41.6709 95.8968 59.3864 96.8064C59.3864 96.8064 73.292 97.3952 70.4185 85.0636H64.5137C64.5137 85.0636 68.5759 91.4236 61.3502 92.4676C61.3502 92.4676 52.9415 93.9144 53.4787 80.5256C53.4787 80.5256 54.3962 65.0492 66.2096 55.862C66.2096 55.862 62.2646 51.3916 64.3709 46.0148C64.3709 46.0148 66.1024 39.9724 72.7716 38.4496L72.1801 59.6124L75.0067 61.3348V61.3844L75.0315 61.3512L75.0727 61.3844V61.3348L77.8825 59.6124L77.2962 38.474C83.9078 40.0108 85.6345 46.0148 85.6345 46.0148C87.7352 51.3916 83.7878 55.862 83.7878 55.862C95.6064 65.0492 96.5299 80.5256 96.5299 80.5256C97.0587 93.9144 88.6468 92.4676 88.6468 92.4676C81.4324 91.4236 85.4917 85.0636 85.4917 85.0636H79.5868C76.7026 97.3952 90.6222 96.8064 90.6222 96.8064C108.335 95.8968 107.299 79.3524 107.299 79.3524C108.334 64.0024 89.9615 55.5856 89.9615 55.5856C94.6644 40.044 82.4179 36.1896 77.2062 35.2696L77.091 31.4564L75.0727 29.3416V29.2952L75.0315 29.3064L75.0067 29.2952ZM124.308 30.838C124.045 30.8305 123.782 30.856 123.525 30.914C122.958 31.01 122.473 31.2348 121.999 31.6044L121.183 32.4724C120.985 32.7995 120.861 33.1664 120.821 33.5468C120.791 33.9192 120.86 34.3304 121.017 34.7712C121.129 35.0644 121.392 35.6504 121.822 36.538C122.104 37.168 122.271 37.6144 122.323 37.91L122.218 38.6992L121.666 39.3728L120.655 39.83C120.299 39.8576 119.943 39.7804 119.554 39.5724C119.176 39.3724 118.836 39.0852 118.527 38.6828C118.179 38.2228 117.954 37.7292 117.863 37.2088C117.762 36.65 117.771 36.2116 117.919 35.8528C118.324 35.4608 118.677 35.152 118.981 34.9192L118.57 34.3952C117.608 35.1512 116.823 35.6332 116.251 35.866C116.382 36.5372 116.557 37.1072 116.774 37.57C117.016 38.0977 117.32 38.5952 117.678 39.0524C118.214 39.7536 118.779 40.2956 119.365 40.6272C119.735 40.8408 120.162 41.0052 120.639 41.1036C121.115 41.2076 121.581 41.2276 121.999 41.1724C122.586 41.0796 123.142 40.8164 123.667 40.4136L124.407 39.6524L124.777 38.8852L124.815 38.05C124.787 37.7596 124.681 37.4004 124.517 37.0032C124.44 36.836 124.265 36.5324 124.008 36.0284C123.758 35.5544 123.564 35.1516 123.432 34.8832C123.268 34.4912 123.171 34.1824 123.147 33.9496L123.268 33.2592L123.832 32.602C124.221 32.314 124.67 32.2128 125.204 32.2896C125.727 32.3936 126.199 32.728 126.645 33.3004C126.933 33.6892 127.132 34.0912 127.25 34.5268C127.354 34.954 127.36 35.3028 127.278 35.5684C127.1 35.7736 126.768 36.0444 126.308 36.4364L126.691 36.9488C127.132 36.6312 127.502 36.3948 127.779 36.2112L128.683 35.7328L128.787 35.5684C128.702 35.152 128.543 34.7052 128.299 34.2256C128.061 33.7408 127.768 33.2996 127.431 32.8504C127.11 32.4221 126.739 32.0331 126.327 31.6916C125.932 31.3604 125.492 31.136 125.035 30.9796C124.802 30.8944 124.556 30.8466 124.308 30.838H124.308ZM131.107 37.9152L130.515 38.2964C130.792 38.7812 130.956 39.0792 130.969 39.1532L130.997 39.3668L130.912 39.5128C130.791 39.6248 130.46 39.8568 129.916 40.2296C129.685 40.402 129.107 40.756 128.236 41.2844L125.475 43.0072C125.015 43.2864 124.525 43.5828 123.983 43.8648C123.605 44.0676 123.224 44.3144 123.158 44.3448L123.018 44.358L122.832 44.1964C122.769 44.1336 122.586 43.8844 122.279 43.4484L121.707 43.7908C122.127 44.4009 122.533 45.0211 122.923 45.6508C123.395 46.425 123.858 47.2047 124.312 47.99L124.892 47.612C124.637 47.182 124.481 46.922 124.448 46.8096L124.407 46.5684L124.486 46.3876C124.601 46.2616 125.045 45.9136 125.488 45.6316L126.688 44.8644L129.353 43.2124C129.436 43.1716 130.019 42.8184 131.112 42.1636L131.761 41.7856L132.235 41.572L132.394 41.5916L132.583 41.7068C132.648 41.786 132.827 42.0348 133.125 42.484L133.7 42.1112C133.204 41.3649 132.716 40.6136 132.235 39.8576C131.846 39.2177 131.47 38.5701 131.107 37.9152ZM21.3944 38.1372C20.9317 38.118 20.4105 38.176 19.8465 38.3456C19.2769 38.5072 18.7506 38.7808 18.2578 39.1532C17.625 39.6708 17.0387 40.326 16.5155 41.1316C15.9979 41.9368 15.6287 42.7556 15.4208 43.5936C15.2592 44.2564 15.2448 44.9336 15.3768 45.6592C15.5033 46.3996 15.7953 47.1019 16.2311 47.7136C16.6803 48.3544 17.2963 48.916 18.1098 49.4312C19.1534 50.1184 20.1673 50.482 21.1316 50.526C22.09 50.5644 22.9831 50.362 23.8103 49.88C24.6235 49.4004 25.3686 48.6584 25.9958 47.6364C26.6013 46.7352 26.9701 45.8424 27.1397 44.9164C27.2525 44.2564 27.2337 43.5828 27.0889 42.898C26.9437 42.2272 26.6809 41.6164 26.2834 41.074C25.7494 40.318 25.0754 39.6824 24.2459 39.1348C23.7579 38.8196 23.2643 38.5808 22.8016 38.4248C22.3499 38.2577 21.8754 38.1607 21.3944 38.1372ZM19.7285 40.2296C20.2597 40.2244 20.8137 40.3012 21.4192 40.4876C22.0216 40.6928 22.638 41.0048 23.2431 41.3884C24.1579 41.9992 24.837 42.6016 25.311 43.2452C25.779 43.8972 25.9958 44.5328 25.9958 45.152C25.9766 45.7652 25.7822 46.3464 25.4206 46.9136C25.0374 47.4912 24.5687 47.9456 24.0047 48.2004C23.4319 48.4636 22.7172 48.5268 21.8628 48.368C21.0081 48.2256 20.0629 47.8092 19.033 47.16C18.3182 46.6804 17.7262 46.1548 17.2715 45.5656C16.8087 44.9852 16.5735 44.3604 16.5595 43.7252C16.5595 43.0596 16.7539 42.4132 17.1647 41.7856C17.5346 41.208 17.9214 40.8188 18.3294 40.6024C18.7402 40.3804 19.2134 40.2516 19.7285 40.2296ZM134.815 43.9828L134.147 44.3444C134.021 44.402 133.468 44.6596 132.495 45.0924L132.744 45.7004C133.169 45.5252 133.56 45.3928 133.936 45.3164L134.226 45.2944L134.404 45.5544C134.607 45.9296 134.818 46.3872 135.043 46.9024L135.495 47.9456C135.361 48.0196 134.7 48.316 133.516 48.8064L129.165 50.68C128.118 51.1348 127.48 51.3812 127.25 51.428L126.872 51.3064C126.763 51.23 126.565 50.9104 126.308 50.3348L125.705 50.5948C126.135 51.4548 126.497 52.2548 126.793 52.9368C127.081 53.5748 127.39 54.3804 127.751 55.3444L128.346 55.0816C128.119 54.4952 128.012 54.1252 128.017 53.9856L128.195 53.6548C128.395 53.504 129.011 53.2132 130.055 52.7612L134.404 50.8988C135.56 50.3948 136.223 50.118 136.407 50.0576L136.847 51.0908C137.054 51.5662 137.24 52.0505 137.403 52.5424L137.45 52.8024L137.189 53.0352C136.855 53.2216 136.519 53.422 136.141 53.6056L136.401 54.194C137.428 53.7804 137.97 53.566 138.003 53.542L138.811 53.2952L138.855 53.1752L138.512 52.5372C138.323 52.1372 137.97 51.3068 137.444 50.0988L136.185 47.1652C135.835 46.3663 135.497 45.5629 135.168 44.7552L134.908 44.0128L134.815 43.9828ZM12.6293 49.2688C12.4593 49.866 12.2237 50.5648 11.9389 51.3836C11.6033 52.3531 11.2454 53.3147 10.8654 54.2676L11.523 54.5116L11.9037 53.5036L12.0929 53.2436L12.2593 53.1944C12.3577 53.1752 12.6761 53.2652 13.1941 53.4216C13.7252 53.5968 14.2892 53.7912 14.9248 54.0048L20.7637 56.0704C20.8845 56.1036 21.4488 56.3248 22.4924 56.7332C23.0155 56.9276 23.3467 57.0832 23.4919 57.1736L23.7795 57.5436L23.7383 58.0152L23.4731 58.4536L22.8404 58.9056L22.8652 59.1112C23.4403 59.3112 23.8863 59.4752 24.2263 59.6288L24.5355 59.0668C24.6395 58.7988 24.6811 58.4892 24.6483 58.1168C24.6347 57.758 24.5471 57.3664 24.4263 56.95C24.2731 56.52 24.1063 56.1364 23.9007 55.8076C23.5967 55.3284 23.2347 54.9148 22.8048 54.6076C22.3828 54.2928 21.7668 54.0048 20.9673 53.7092L17.7674 52.6164L15.0724 51.658C14.3384 51.3948 13.78 51.178 13.3829 50.994L13.0461 50.754L13.0021 50.4172C13.0209 50.3104 13.1113 50.0032 13.2813 49.502L12.6293 49.2688ZM129.036 56.4536L128.409 56.6152L128.872 58.3684L129.258 60.1432L129.899 59.9952C129.765 59.3764 129.715 59.0012 129.764 58.8616L130.006 58.6696C130.176 58.6256 130.635 58.6428 131.405 58.7496L132.413 58.8616L133.36 62.8088L131.827 63.8792L131.247 64.1896L130.997 64.1288C130.939 64.066 130.819 63.7068 130.635 63.11L130.006 63.2628L130.696 65.9368L131.172 68.0864L131.799 67.9364L131.761 67.5964L131.712 67.1232L131.761 66.9524L131.939 66.7584L132.561 66.2868L133.503 65.5472L140.68 60.206L140.43 59.0996L138.512 58.85L133.096 58.012C132.057 57.8668 131.372 57.772 131.033 57.714C130.282 57.5852 129.85 57.5084 129.735 57.4728L129.452 57.3628L129.304 57.174C129.258 57.1108 129.165 56.8672 129.036 56.4536ZM10.1794 57.004L10.061 57.0284L9.95946 57.2636C9.78946 57.8172 9.71907 58.1956 9.66947 58.3844L9.35109 59.9344C9.1623 60.7892 8.99311 61.5568 8.83152 62.258L8.59313 63.2624L8.13315 65.0272L8.79232 65.1608C8.96511 64.5688 9.0891 64.2352 9.1763 64.1036L9.32669 64.0184C9.45548 63.9856 9.81706 64.0436 10.3978 64.1532C11.2554 64.3336 11.7478 64.4436 11.8818 64.46L15.3084 65.2656C15.7163 65.3616 16.3471 65.544 17.2015 65.7768C17.6862 65.9028 18.0206 66.0104 18.2286 66.0952L18.4782 66.9416L18.9022 67.0404C19.2309 65.4628 19.4229 64.5964 19.4529 64.4704C19.5461 64.0264 19.7601 63.1916 20.0641 61.992L20.3681 60.7676C20.5049 60.1704 20.5901 59.7024 20.6309 59.3652L20.5509 59.244C19.9017 59.096 19.0858 58.8504 18.1106 58.5108L17.9574 59.132C18.623 59.3924 19.0614 59.584 19.2833 59.74L19.3925 59.8604C19.4389 59.9948 19.4233 60.2772 19.3493 60.7676C19.2781 61.2412 19.1678 61.7448 19.0554 62.3012C18.9419 62.7899 18.8132 63.275 18.6694 63.7556C18.401 63.6924 18.0918 63.6464 17.7274 63.5532L14.5012 62.8084C14.5532 62.4744 14.6236 62.0632 14.7332 61.5724C14.8676 61.022 14.9992 60.5924 15.1392 60.2444L15.3992 59.962C15.5603 59.918 15.9303 59.962 16.5163 60.0988L16.6643 59.428L14.9964 59.086L13.3313 58.664L13.1785 59.288C13.6329 59.4088 13.9476 59.5076 14.12 59.6252L14.2484 59.7732L14.2024 60.2632C14.1125 60.6839 14.0276 61.1057 13.9476 61.5284C13.8464 61.9176 13.7476 62.274 13.6385 62.5916L12.0873 62.2416C11.1918 62.0304 10.4826 61.8248 9.92146 61.6304C9.99785 61.1508 10.0834 60.6772 10.1874 60.2332C10.3029 59.7383 10.4455 59.2501 10.6146 58.7708L10.8906 58.1956L11.0502 58.1216C11.1926 58.1216 11.573 58.1956 12.1729 58.3136L12.3073 57.7272C11.6718 57.53 11.3046 57.4088 11.2362 57.3952L10.1794 57.004ZM133.381 59.0008L137.706 59.6252L134.148 62.2024C134.019 61.756 133.884 61.2224 133.739 60.6472C133.602 60.0312 133.468 59.4856 133.381 59.0008ZM67.1059 61.5932C65.2548 61.5796 63.1465 62.002 60.8583 63.1968L55.4626 81.462C55.4626 81.462 64.5225 76.4572 73.32 82.5108H73.328C73.7036 82.7548 74.3119 82.9216 75.0079 82.9216C75.6895 82.9216 76.2978 82.7544 76.6674 82.5108H76.7086C85.5089 76.4572 94.5556 81.462 94.5556 81.462L89.1707 63.1968C81.0332 58.9484 75.1915 64.4624 75.0075 64.6348C74.8915 64.5108 71.8369 61.628 67.1059 61.5932ZM67.3595 62.7868C69.4582 62.8568 72.0589 63.4472 75.0075 65.1608V65.1768H75.0119V65.1608C82.8867 60.592 88.2556 64.002 88.2556 64.002L92.1966 78.9524C83.361 76.1092 75.1903 81.4612 75.0071 81.5792C74.8455 81.4612 66.6504 76.1092 57.8336 78.9524L61.7582 64.002C61.7582 64.002 63.8617 62.6704 67.3591 62.7868H67.3595ZM79.2805 65.9988L79.2197 66.5556L79.6716 66.6212L79.8032 66.7004L79.8552 66.8104L79.8752 67.1C79.8752 67.2316 79.856 67.58 79.8424 68.114L79.7784 69.3764L79.6304 71.746C79.5869 72.6308 79.5164 73.43 79.4645 74.142L79.3821 74.6384L79.3217 74.7208L78.7629 74.7944L78.7249 75.3944C79.0617 75.3864 79.4281 75.3944 79.7948 75.416C80.14 75.446 80.6548 75.4792 81.3236 75.5504L81.3596 74.9504L80.82 74.8716L80.6936 74.7728L80.6556 74.666C80.6396 74.562 80.6396 74.3072 80.6556 73.9236C80.672 73.2552 80.6936 72.6004 80.7432 71.9596L80.894 69.4288L80.9864 68.1024C81.0112 67.5792 81.0604 67.1744 81.0852 66.8896L81.5811 66.8268L82.2851 67.3332C82.4411 67.648 82.5019 68.114 82.4551 68.7384C82.4279 69.33 82.3071 69.7656 82.1267 70.0612L81.4711 70.4916L81.3348 70.4444L81.1816 70.3704L81.0852 70.5052L81.1952 70.99L81.4331 71.0804L81.6799 71.1132L82.6575 70.76C82.9591 70.5024 83.2022 70.152 83.3614 69.7276C83.531 69.2836 83.6298 68.8236 83.6518 68.3276C83.671 67.8372 83.6434 67.3876 83.509 67.0756L83.0327 66.3996L82.2167 66.15L80.4392 66.106L79.2805 65.9988ZM68.9434 66.01C68.5739 66.01 68.2535 66.062 67.9359 66.1712L67.0587 66.6972C66.7876 66.9412 66.5328 67.2624 66.3028 67.6484C66.0948 68.0428 65.9108 68.4996 65.7932 69.0228C65.67 69.5432 65.6124 70.1628 65.6124 70.8668C65.6124 71.6992 65.7004 72.466 65.8952 73.148C66.0066 73.5807 66.1798 73.9951 66.4096 74.3784C66.648 74.7592 66.9111 75.0652 67.2343 75.3172C67.6971 75.646 68.2203 75.8332 68.8202 75.8332C69.1874 75.8332 69.5514 75.764 69.9214 75.646C70.2802 75.4952 70.7153 75.3012 71.2165 74.9916L71.1753 73.9316C71.1753 73.718 71.1757 73.3424 71.1981 72.8196L71.2309 72.466L71.5401 72.2276V71.8004L70.3402 71.8148L69.157 71.8004V72.3376C69.5626 72.3788 69.817 72.4084 69.913 72.4656L70.017 72.5872C70.0362 72.6556 70.0558 72.9208 70.0558 73.3532L70.0362 73.9644C70.031 74.3288 70.025 74.5564 70.017 74.666L69.5382 74.9392L69.0122 75.036C68.3935 75.036 67.8803 74.652 67.4615 73.8628C67.0479 73.0908 66.8319 72.0332 66.8319 70.6988C66.8319 69.4912 67.0399 68.544 67.4367 67.8376C67.8339 67.1388 68.3599 66.7908 69.0226 66.7908L69.7846 66.9632L70.3813 67.4124L70.5953 67.7524L70.6313 68.2644L70.6553 68.9056H70.9729C71.0249 67.9004 71.0853 67.1984 71.1537 66.796L71.1157 66.6808C70.8941 66.5168 70.5893 66.3744 70.1978 66.2072C69.817 66.076 69.3954 66.01 68.9434 66.01ZM74.7611 66.1364L74.4131 67.6484L73.3692 71.9872C73.172 72.8144 73.0356 73.3536 72.9864 73.6276C72.822 74.2328 72.7284 74.5704 72.6956 74.666L72.6132 74.8716L72.4964 74.9508L72.1285 75.036V75.5864L73.0356 75.5504L73.9508 75.5864V75.036L73.3856 74.9064L73.3264 74.6876C73.3264 74.5208 73.3864 74.1424 73.5152 73.5292L73.688 72.6992H75.7339L76.087 74.1976L76.1662 74.7336L76.1034 74.9392L75.5695 75.036V75.5864L76.9634 75.5504L78.0593 75.5864V75.036L77.8917 74.992L77.6534 74.9392L77.5714 74.8712L77.5058 74.6876L77.333 74.0744L77.0918 73.1592L75.3251 66.1364H74.7611ZM84.531 66.344L84.4406 66.9172L84.9862 67.1196L85.0438 67.2316C85.0462 67.3328 85.0266 67.6396 84.9554 68.1384C84.8622 68.9052 84.797 69.3356 84.7726 69.44L84.3366 72.4332C84.2822 72.7892 84.1966 73.3428 84.0594 74.1044C83.9858 74.5124 83.9362 74.8196 83.8874 75.0032L83.4462 75.3316L83.3858 75.6904C84.2074 75.7832 84.6514 75.8352 84.7118 75.8352C84.9558 75.8708 85.3805 75.9588 86.0049 76.06L86.6377 76.1668L87.3496 76.2356L87.4152 76.142C87.5 75.5808 87.634 74.8552 87.8232 73.976L87.492 73.9284C87.358 74.5204 87.254 74.9256 87.1636 75.1284L87.108 75.2432L86.6509 75.3172L85.8457 75.2432L85.0977 75.0952L85.2097 74.2684L85.6189 71.4584L86.2537 71.4992L86.9416 71.6752L87.0896 71.8744C87.1088 71.992 87.0892 72.3156 87.0096 72.8388L87.3444 72.888L87.5436 71.4284L87.7736 69.9596L87.4512 69.9136C87.3964 70.3136 87.3248 70.5848 87.2836 70.76L87.1984 70.8912H86.9416C86.5637 70.8668 86.3465 70.8204 86.2865 70.8124L85.7337 70.7108L85.9249 69.358C86.0453 68.5636 86.1441 67.9332 86.2701 67.44L86.988 67.4976L87.744 67.6896L88.0448 67.8376L88.056 67.9824C88.056 68.1028 88.0368 68.412 87.9708 68.9408L88.2728 68.9984C88.3688 68.4232 88.4336 68.1032 88.4556 68.0432L88.6639 67.0868L88.648 66.9996L88.5328 66.942L87.9524 66.8268L87.1472 66.75C86.747 66.7025 86.3476 66.6477 85.9493 66.5856L85.4297 66.5168L84.531 66.344ZM63.0354 66.9416L62.4798 66.9992L62.2466 68.5464L61.5482 72.9372C61.4362 73.7864 61.3266 74.3316 61.2882 74.6136C61.2386 74.9625 61.1773 75.3096 61.1043 75.6544L61.0387 75.8708L60.9435 75.9728L60.5595 76.0632L60.6035 76.6272L61.5074 76.512L62.4326 76.482L62.3834 75.9232L61.8082 75.8352L61.7242 75.6272C61.7102 75.4768 61.737 75.0824 61.8326 74.4608L61.9458 73.6328L63.9837 73.4716L64.4405 74.926L64.5753 75.4652L64.5229 75.6652L63.9937 75.802L64.0377 76.3508L65.4216 76.1968L66.5248 76.1472L66.4896 75.5968L66.3028 75.5804L66.0756 75.5504L65.9772 75.4764L65.8952 75.3172L65.6784 74.6988L65.364 73.8032L63.0354 66.9416ZM15.09 68.1548C14.7385 68.1378 14.3868 68.1834 14.0512 68.2896L13.2769 68.6396L12.7265 69.2528C12.5593 69.5188 12.4169 69.8612 12.2989 70.2832C12.2175 70.6359 12.1388 70.9893 12.0629 71.3432C11.9867 71.7689 11.9044 72.1935 11.8162 72.6168C11.6962 73.0032 11.5726 73.304 11.4382 73.5176L10.9154 73.9644L10.061 74.1236C9.59268 74.1184 9.1627 73.912 8.80392 73.5096C8.46154 73.1068 8.28595 72.5404 8.30795 71.8392C8.32395 71.338 8.42034 70.8916 8.61473 70.4916C8.79552 70.0756 9.00111 69.8116 9.24749 69.6476C9.50508 69.6144 9.93826 69.6012 10.549 69.6012L10.565 68.9408C10.1323 68.9255 9.70072 68.8864 9.27229 68.8236L8.26435 68.6396L8.07556 68.7056C7.86197 69.0836 7.72158 69.5356 7.60118 70.0616C7.49247 70.5931 7.42918 71.1329 7.41199 71.6752C7.404 72.2036 7.44799 72.7424 7.54359 73.2548C7.66118 73.7616 7.83717 74.2332 8.10836 74.6384C8.37394 75.052 8.75192 75.386 9.24749 75.6464C9.73227 75.9092 10.2742 76.0412 10.855 76.0632C11.2794 76.0632 11.6822 76.0076 12.0549 75.8844C12.4161 75.75 12.7265 75.5692 12.9977 75.2924C13.2577 75.0188 13.4713 74.666 13.6217 74.206C13.726 73.9128 13.8736 73.2796 14.0924 72.3376C14.2648 71.6748 14.4324 71.2116 14.5772 70.9656L15.1608 70.39L16.0071 70.2124C16.4095 70.2396 16.7551 70.3216 17.0651 70.5052C17.3743 70.6996 17.6094 70.9892 17.7686 71.3892C17.941 71.784 18.023 72.2284 18.0118 72.7352C17.9874 73.3048 17.8642 73.8352 17.6038 74.3068C17.3411 74.786 17.0459 75.1288 16.7119 75.3204C16.1471 75.3724 15.6699 75.3864 15.284 75.3644L15.276 76.0244C16.5111 76.0624 17.415 76.1724 18.023 76.3508C18.296 75.8225 18.5179 75.2693 18.6858 74.6988C18.8062 74.1976 18.883 73.6196 18.891 72.962C18.927 72.0912 18.8146 71.3212 18.579 70.686C18.415 70.2615 18.1817 69.8673 17.8886 69.5192C17.6018 69.1591 17.2555 68.8506 16.8647 68.6072C16.3527 68.3272 15.7551 68.1768 15.0896 68.1552L15.09 68.1548ZM24.5855 68.1848C31.7343 73.5508 29.1952 81.5932 29.1952 81.5932C29.1952 81.5932 27.0889 73.1788 26.1714 71.8392C26.1714 71.8392 25.761 71.3048 25.3854 71.4992C25.2322 71.5816 25.0978 71.7568 24.983 72.1484C24.983 72.1484 26.2646 75.8028 27.1409 78.7172C27.5297 80.0732 27.8449 81.27 27.9133 81.8696C22.0876 76.8544 24.5855 68.1848 24.5855 68.1848ZM125.777 68.1848C125.777 68.1848 128.256 76.8544 122.457 81.8696C122.507 81.2696 122.83 80.0732 123.228 78.7176L123.239 78.672C124.104 75.7648 125.369 72.1484 125.369 72.1484C125.268 71.7568 125.12 71.5816 124.975 71.4992C124.602 71.3048 124.186 71.8392 124.186 71.8392C123.26 73.1788 121.154 81.5932 121.154 81.5932C121.154 81.5932 118.617 73.5504 125.777 68.1848ZM74.6955 68.4752L75.5447 71.9544L74.7251 71.9588L73.8768 71.9544L74.6955 68.4752ZM139.203 68.7044C139.058 68.6956 138.913 68.6958 138.768 68.7048C138.357 68.7184 137.965 68.7868 137.601 68.94C137.25 69.0942 136.937 69.3236 136.684 69.612C136.44 69.8692 136.259 70.2632 136.141 70.7264C136.057 71.0192 135.941 71.6604 135.769 72.6164C135.645 73.2792 135.517 73.7364 135.381 74.0264L134.835 74.6296L134 74.8432C133.625 74.8565 133.253 74.7775 132.916 74.6132C132.609 74.4596 132.359 74.1696 132.156 73.7864C131.97 73.4 131.863 72.9504 131.841 72.4684C131.819 71.8824 131.94 71.3672 132.156 70.866C132.392 70.37 132.668 70.0112 132.992 69.8028C133.54 69.718 134.008 69.658 134.383 69.658L134.361 69.0036C133.134 69.034 132.217 68.9976 131.617 68.858C131.365 69.3935 131.173 69.9557 131.047 70.534C130.956 71.0436 130.913 71.6188 130.94 72.2844C130.97 73.1584 131.132 73.9144 131.395 74.5196C131.579 74.9401 131.837 75.3242 132.156 75.6536C132.493 76.0096 132.846 76.2976 133.249 76.5032C133.761 76.758 134.361 76.87 135.037 76.8532C135.391 76.8428 135.742 76.7774 136.076 76.6592L136.829 76.2536L137.338 75.596C137.492 75.3304 137.601 74.9908 137.703 74.5608C137.722 74.3856 137.791 74.0268 137.846 73.4708C137.925 72.934 137.993 72.51 138.04 72.2004C138.138 71.8032 138.239 71.48 138.357 71.2884L138.856 70.7868L139.696 70.5784C140.176 70.5564 140.598 70.7344 140.981 71.1124C141.359 71.496 141.557 72.0524 141.592 72.756C141.611 73.223 141.532 73.6888 141.359 74.1232C141.195 74.5204 141.005 74.8272 140.781 75.0024C140.529 75.0492 140.096 75.0948 139.491 75.1276L139.511 75.7852C140.045 75.7852 140.494 75.8012 140.805 75.8012L141.825 75.9308L142.013 75.8704C142.189 75.476 142.317 75.0184 142.391 74.4948C142.479 73.9528 142.504 73.4296 142.485 72.868C142.467 72.3349 142.389 71.8056 142.252 71.29C142.12 70.786 141.893 70.3432 141.611 69.9488C141.318 69.5432 140.921 69.2412 140.419 69.014C140.037 68.8357 139.624 68.7304 139.203 68.7036V68.7044ZM62.5918 69.3352L63.7145 72.7352L62.9094 72.8192L62.0606 72.8688L62.5918 69.3352ZM36.768 79.8892C37.1232 79.9032 37.4972 79.9336 37.8919 79.9848C37.8919 79.9848 32.8794 81.4976 30.4391 83.3928C30.4391 83.3928 31.4407 79.6808 36.768 79.8892ZM113.581 79.8892C118.917 79.6808 119.921 83.3932 119.921 83.3932C117.495 81.4972 112.455 79.9848 112.455 79.9848C112.829 79.9362 113.204 79.9043 113.581 79.8892ZM22.9419 80.024C27.6313 81.7112 28.768 87.2768 28.768 87.2768L27.0341 86.31C24.2923 82.96 22.9419 80.024 22.9419 80.024ZM127.431 80.024C127.431 80.024 126.071 82.96 123.326 86.31L121.586 87.2768C121.586 87.2768 122.732 81.7112 127.431 80.024ZM38.7515 81.1188C38.7515 81.1188 35.7856 83.6912 32.069 83.8828C32.069 83.8828 35.5277 81.8148 38.7515 81.1188ZM111.595 81.1188C114.837 81.8148 118.283 83.8828 118.283 83.8828C114.569 83.6912 111.594 81.1188 111.594 81.1188H111.595ZM22.1924 81.27C23.3727 83.8828 25.0978 85.658 25.0978 85.658H24.5475C22.2276 83.434 22.1924 81.27 22.1924 81.27ZM128.183 81.27C128.183 81.27 128.119 83.434 125.805 85.658H125.268C125.268 85.658 127.005 83.8828 128.183 81.27ZM12.0169 82.1048C10.3814 82.1048 9.0667 83.428 9.0667 85.0632C9.06628 85.4505 9.14233 85.834 9.29049 86.1918C9.43865 86.5496 9.656 86.8747 9.93007 87.1483C10.2041 87.4219 10.5295 87.6387 10.8876 87.7862C11.2456 87.9337 11.6293 88.0091 12.0165 88.008C13.6381 88.008 14.9664 86.6928 14.9664 85.0632C14.9664 83.428 13.6385 82.1048 12.0165 82.1048H12.0169ZM138.283 82.5156C136.643 82.5156 135.336 83.8524 135.336 85.474C135.336 87.1012 136.643 88.4272 138.283 88.4272C138.671 88.4278 139.055 88.3519 139.414 88.2036C139.772 88.0554 140.098 87.8378 140.372 87.5634C140.646 87.289 140.863 86.9632 141.011 86.6046C141.159 86.2461 141.234 85.8618 141.233 85.474C141.233 83.8524 139.926 82.5156 138.283 82.5156ZM38.0675 83.1156C38.0675 83.1156 38.3243 88.6928 34.0625 90.8184C34.0625 90.8184 35.6269 87.5808 36.276 84.2116L38.0675 83.1156ZM112.304 83.1156L114.091 84.2116C114.743 87.5808 116.306 90.8184 116.306 90.8184C112.033 88.6928 112.304 83.1156 112.304 83.1156ZM71.9921 83.5244V96.4804C75.6595 98.31 78.2781 96.4804 78.2781 96.4804V83.5244C74.3423 86.028 71.9921 83.5244 71.9921 83.5244ZM34.8021 84.6308C34.8021 84.6308 33.7834 89.0628 32.8794 90.194C32.8794 90.194 32.4954 87.0024 33.0982 85.0632L34.8021 84.6308ZM115.538 84.6308L117.27 85.0628C117.865 87.0028 117.494 90.194 117.494 90.194C116.568 89.0628 115.538 84.6308 115.538 84.6308ZM31.6303 85.3868C31.6303 85.3868 31.3047 88.728 31.6303 90.0268L30.3291 88.5124C30.3291 88.5124 29.8004 85.9804 29.524 85.4412L31.6303 85.3868ZM118.735 85.3868L120.839 85.4412C120.559 85.9808 120.025 88.5124 120.025 88.5124L118.735 90.0264C119.058 88.728 118.735 85.3868 118.735 85.3868ZM22.5576 86.736C28.6412 86.7024 30.7147 91.1632 30.7147 91.1632C27.1405 89.0624 21.1012 87.0512 21.1012 87.0512C20.5561 86.9008 20.1837 87.6492 20.1837 87.6492L19.6989 87.0512C20.7377 86.8372 21.6884 86.7408 22.5576 86.736ZM127.792 86.736C128.661 86.7404 129.611 86.8372 130.649 87.0512L130.184 87.6492C130.184 87.6492 129.801 86.9008 129.259 87.0512C129.259 87.0512 123.221 89.0624 119.639 91.1632C119.639 91.1632 121.711 86.7024 127.792 86.736ZM20.7725 88.3528C25.2506 89.5416 30.5455 92.6044 30.5455 92.6044C24.6595 93.9108 20.7725 88.3528 20.7725 88.3528ZM129.579 88.3528C129.579 88.3528 125.703 93.9108 119.809 92.6044C119.809 92.6044 125.112 89.5416 129.579 88.3528ZM132.718 91.4588L132.09 93.1384C132.027 93.2836 131.896 93.596 131.674 94.0668L132.304 94.6852C132.468 94.8552 132.904 95.3156 133.602 96.0852L134.854 97.436C135.185 97.8032 135.64 98.2984 136.223 98.9828L131.832 99.2868L130.833 99.3312L129.53 99.3888C129.403 99.785 129.26 100.176 129.102 100.561C128.995 100.854 128.757 101.361 128.434 102.138L128.907 102.328L129.252 101.695L129.39 101.528L129.53 101.514C129.667 101.514 130.014 101.635 130.611 101.854C131.181 102.081 131.869 102.35 132.619 102.651C133.463 102.98 134.065 103.229 134.404 103.386C135.111 103.684 135.56 103.909 135.768 104.01L135.96 104.16L135.99 104.292C135.99 104.39 135.927 104.668 135.785 105.095L136.259 105.286C136.369 104.927 136.533 104.481 136.769 103.908C136.941 103.47 137.13 103.053 137.313 102.632L136.843 102.434C136.665 102.812 136.552 103.042 136.5 103.1L136.335 103.229H136.122C136.029 103.21 135.671 103.076 135.035 102.832C134.481 102.638 133.933 102.426 133.394 102.194L130.636 101.101L134.227 100.83C134.777 100.792 135.612 100.75 136.721 100.69C137.362 100.657 137.872 100.633 138.24 100.633L138.39 100.243L137.604 99.4352C137.075 98.8652 136.665 98.4244 136.391 98.1284L135.344 96.9892L133.238 94.636L137.311 96.2712C138.089 96.5752 138.546 96.7732 138.68 96.8772L138.882 97.1156C138.899 97.2004 138.811 97.4768 138.644 97.9424L139.127 98.1284L139.801 96.3728L140.537 94.6176L140.066 94.4204C139.871 94.8204 139.765 95.0448 139.735 95.094L139.6 95.1844L139.441 95.198C139.332 95.1732 139.025 95.094 138.54 94.9216C138.464 94.8996 138.182 94.7868 137.702 94.6032L135.744 93.8092L134.169 93.1572L133.468 92.8508L133.006 92.5076C132.959 92.368 133.006 92.1188 133.17 91.7188L133.194 91.656L132.718 91.4588ZM14.7648 92.182C14.1988 92.1732 13.6185 92.2848 13.0189 92.5108C12.3309 92.804 11.7318 93.1844 11.255 93.7156C10.929 94.0524 10.683 94.4556 10.4746 94.9216C10.2679 95.415 10.1618 95.9447 10.1626 96.4796C10.1514 97.1864 10.321 97.964 10.6226 98.7528C10.8554 99.3168 11.0986 99.778 11.3394 100.098C11.5806 100.446 11.9201 100.792 12.3581 101.166L13.0353 101.208L13.1061 100.994C12.7389 100.69 12.4349 100.382 12.2101 100.068C11.9829 99.7584 11.8026 99.4076 11.6462 99.0356C11.4138 98.4412 11.299 97.9036 11.3046 97.4136C11.329 97.0712 11.419 96.6776 11.6054 96.2528C11.7754 95.8556 12.0601 95.4576 12.4353 95.0964C12.8133 94.7372 13.3121 94.4476 13.9256 94.1872C14.9256 93.7764 15.8011 93.7492 16.5735 94.0424C17.3655 94.3544 17.9214 94.9324 18.2854 95.842C18.4774 96.324 18.5786 96.762 18.5622 97.1156C18.5622 97.4908 18.4774 97.8468 18.3186 98.2056C18.083 98.3452 17.7598 98.496 17.3491 98.6688L17.5186 99.1008C17.9271 98.9727 18.338 98.8523 18.751 98.7396L19.4801 98.6132L19.5429 98.5452C19.5316 98.0226 19.4748 97.502 19.3733 96.9892C19.2829 96.5484 19.135 96.0856 18.935 95.5624C18.3294 94.0668 17.4974 93.086 16.4235 92.5764C15.9056 92.3266 15.3397 92.1921 14.7648 92.182ZM33.5746 93.3736C33.5746 93.3736 37.2448 94.5132 37.6203 103.908L37.0808 103.749C37.0808 103.749 34.7657 99.8572 34.5521 96.9972C34.5521 96.9972 34.0041 93.8612 33.5746 93.3736ZM116.779 93.3736C116.349 93.8612 115.821 96.9976 115.821 96.9976C115.602 99.8572 113.273 103.749 113.273 103.749L112.731 103.908C113.103 94.5132 116.779 93.3736 116.779 93.3736ZM32.3254 93.6496C32.3254 93.6496 33.6266 97.3816 33.4706 98.2908C33.4706 98.2908 34.7065 102.506 35.2977 103.054L33.8517 102.818C33.8517 102.818 31.3611 99.1008 32.3254 93.65V93.6496ZM118.026 93.6496C119.004 99.1008 116.514 102.818 116.514 102.818L115.051 103.054C115.643 102.506 116.892 98.2908 116.892 98.2908C116.722 97.3812 118.026 93.65 118.026 93.65V93.6496ZM30.9759 93.7484C30.9759 93.7484 30.7151 96.0112 30.9399 97.3232L28.8692 95.918L27.9129 94.028C27.9129 94.028 30.2199 94.1868 30.9759 93.7484ZM41.5181 93.7484C40.2746 94.5124 37.7319 96.7672 37.7319 96.7672L37.464 95.9592C38.9815 93.65 41.5181 93.7484 41.5181 93.7484ZM108.841 93.7484C108.841 93.7484 111.381 93.65 112.895 95.9588L112.624 96.7672C112.624 96.7672 110.085 94.5128 108.841 93.7484ZM119.375 93.7484C120.126 94.1868 122.457 94.028 122.457 94.028L121.482 95.918L119.433 97.3232C119.639 96.0112 119.375 93.7484 119.375 93.7484ZM42.9117 94.3544C42.3257 97.5428 38.4911 99.3724 38.4911 99.3724L38.2775 98.0708C39.4114 96.608 42.9121 94.3548 42.9121 94.3548L42.9117 94.3544ZM107.439 94.3544C107.439 94.3544 110.954 96.608 112.09 98.0708L111.857 99.3724C111.857 99.3724 108.034 97.5428 107.439 94.3544ZM25.5558 96.822C31.2275 96.87 31.8519 101.489 31.8519 101.489C28.4392 98.0272 23.4323 97.1124 23.4323 97.1124C22.192 97.1124 22.9415 98.1284 22.9415 98.1284C28.3372 99.6376 30.3923 102.026 30.3923 102.026C26.2894 101.586 21.8568 97.3232 21.8568 97.3232C23.2819 96.96 24.5055 96.8128 25.5558 96.822ZM124.8 96.822C125.85 96.8128 127.074 96.96 128.499 97.3232C128.499 97.3232 124.076 101.586 119.967 102.026C119.967 102.026 122.025 99.6376 127.431 98.1284C127.431 98.1284 128.182 97.1124 126.933 97.1124C126.933 97.1124 121.907 98.0272 118.516 101.489C118.516 101.489 119.128 96.87 124.8 96.822ZM20.0637 98.924L19.6221 99.1672C19.8413 99.6136 19.9397 99.896 19.9505 100.025L19.8913 100.145C19.8337 100.225 19.5621 100.403 19.1238 100.641L18.0014 101.268L15.9983 102.35L14.4044 103.133L13.7468 103.408L13.5745 103.454L13.4657 103.386C13.3969 103.326 13.2433 103.101 13.0189 102.687L12.5453 102.947C12.8411 103.452 13.125 103.963 13.3969 104.481C13.7322 105.097 14.0536 105.721 14.3608 106.352L14.846 106.106L14.5524 105.465L14.5192 105.292L14.5584 105.171L14.92 104.908C15.0184 104.85 15.4288 104.612 16.1575 104.21C16.714 103.876 17.2842 103.567 17.8666 103.281C18.2066 103.087 18.8826 102.734 19.9209 102.208C20.3781 101.992 20.6681 101.855 20.8133 101.784L21.1124 102.27C21.3232 102.656 21.4324 102.942 21.4708 103.117L21.3228 103.947L20.6309 104.635L19.6221 104.87L18.7758 104.612C18.5482 104.445 18.329 104.136 18.1102 103.714L17.9158 103.739L17.7318 104.27C17.5598 104.667 17.2719 105.18 16.8939 105.79L15.6179 107.954L15.3768 108.244L15.8535 109.082C15.9851 109.342 16.1927 109.74 16.4667 110.302L16.9135 110.064L16.7851 109.694L16.8263 109.455C16.8535 109.368 16.9823 109.074 17.1959 108.622C17.2123 108.617 17.3267 108.379 17.535 107.976L18.3546 106.476L18.409 106.352L18.6146 105.982L18.9402 105.424C19.4601 105.876 19.9533 106.124 20.4681 106.215C20.9481 106.286 21.4188 106.215 21.8572 105.983C22.216 105.791 22.4732 105.536 22.6376 105.186L22.7476 104.21C22.6792 103.886 22.4932 103.438 22.1916 102.884C21.997 102.513 21.7943 102.146 21.5836 101.784C21.4196 101.529 21.2548 101.208 21.0464 100.83C20.8137 100.386 20.6301 100.052 20.5093 99.8C20.2601 99.3068 20.1185 99.0088 20.0637 98.924ZM65.2012 99.8576C64.1413 100.252 63.3637 100.534 62.8626 100.707C62.3586 100.86 61.6846 101.087 60.8383 101.317L60.8247 101.364L60.9151 101.81L60.9839 102.268L61.0663 102.318C61.3234 102.164 61.907 101.906 62.8246 101.501L63.1338 101.381L63.2437 101.457L63.2897 101.739L63.3033 102.35C63.3193 103.022 63.3229 103.665 63.3229 104.249V105.95C63.3229 107.218 63.2957 108.031 63.2437 108.412L63.101 108.793L62.7806 108.902L61.4358 109.056V109.644C62.9946 109.614 64.0077 109.598 64.4401 109.598C65.076 109.598 65.9112 109.614 66.9463 109.644V109.056L66.4916 109.02C65.9328 108.992 65.5984 108.941 65.4888 108.892L65.344 108.744C65.292 108.637 65.2704 108.3 65.2648 107.684C65.2268 107.294 65.2096 106.571 65.2096 105.552V104.492C65.2396 102.796 65.2644 101.745 65.27 101.348C65.27 101.241 65.2916 100.997 65.3164 100.633C65.3436 100.252 65.3656 100.038 65.3656 99.9612L65.2012 99.8576ZM80.9068 99.8856C80.8192 99.8908 80.5204 99.9364 79.9836 100.06L79.1437 100.224C78.9437 100.482 78.6145 100.958 78.1541 101.695C77.7021 102.415 77.1462 103.418 76.4862 104.689C76.007 105.621 75.7003 106.256 75.5823 106.62L75.6699 107.217C76.5298 107.182 77.3738 107.182 78.2281 107.182H79.1733C79.1429 107.922 79.1429 108.335 79.1237 108.412L79.0005 108.842L78.7757 108.941C78.6605 108.982 78.2285 109.004 77.459 109.056V109.644L79.9096 109.598L81.7255 109.633L82.2903 109.644V109.056L81.3724 108.968L81.0844 108.842L80.9612 108.617C80.9284 108.365 80.9184 107.889 80.9184 107.182H82.2515L82.1999 106.658L82.2515 106.024L82.1999 105.946L81.1864 105.988L80.9184 105.983V104.391C80.9292 102.884 80.9396 101.926 80.9616 101.49C80.986 100.83 81.0056 100.321 81.0336 99.998L80.9068 99.8856ZM71.5121 100.038C70.5917 100.038 69.8418 100.34 69.2502 100.975C68.6502 101.616 68.3483 102.443 68.3483 103.511C68.3483 104.39 68.5739 105.056 68.9874 105.536C69.3954 105.982 69.9126 106.231 70.5209 106.231L71.5397 106.062L71.7861 105.902C71.9533 105.768 72.246 105.497 72.7148 105.089C72.638 105.82 72.5612 106.363 72.4516 106.719C72.3099 107.165 72.1099 107.591 71.8569 107.984C71.5941 108.365 71.2517 108.653 70.8465 108.892C70.4437 109.113 70.0006 109.242 69.5378 109.242L69.0218 109.154L68.8526 109.426L69.4002 109.874C70.0962 109.874 70.7373 109.757 71.3373 109.491C71.9317 109.242 72.4708 108.875 72.986 108.379C73.4788 107.889 73.8756 107.295 74.1659 106.599C74.4619 105.903 74.6099 105.057 74.6099 104.06C74.6099 103.189 74.4979 102.49 74.2791 101.936C74.0599 101.364 73.7224 100.909 73.254 100.561C72.8076 100.208 72.2268 100.038 71.5121 100.038ZM86.8392 100.038C86.4589 100.038 86.0973 100.093 85.7553 100.208L84.8674 100.756C84.6102 100.976 84.377 101.279 84.1826 101.657C83.9826 102.027 83.8326 102.427 83.7694 102.885C83.6518 103.548 83.597 104.292 83.597 105.122C83.597 105.875 83.6454 106.55 83.7222 107.15C83.8238 107.752 83.9854 108.27 84.2482 108.653C84.5058 109.056 84.8322 109.368 85.2289 109.576C85.6425 109.776 86.1029 109.874 86.6505 109.874C87.108 109.874 87.4916 109.814 87.8092 109.677L88.6804 109.138C88.9323 108.892 89.1699 108.559 89.3671 108.138C89.5783 107.73 89.7319 107.218 89.7975 106.634C89.8715 106.048 89.9211 105.364 89.9211 104.578C89.9211 103.471 89.8171 102.607 89.6283 101.991C89.4283 101.364 89.1131 100.885 88.6751 100.535C88.2312 100.208 87.634 100.038 86.8392 100.038ZM71.3373 100.806C71.8029 100.806 72.1617 101.022 72.3892 101.468C72.6248 101.906 72.7424 102.526 72.7424 103.325C72.7424 103.733 72.7088 104.029 72.6128 104.257L72.1641 104.768L71.5181 104.958L70.8053 104.703L70.2794 104.029C70.1506 103.703 70.0854 103.282 70.0854 102.761C70.0854 102.049 70.1974 101.556 70.4437 101.263C70.6793 100.959 70.9729 100.806 71.3373 100.806ZM86.6621 100.806L87.2536 100.997L87.6808 101.567C87.8012 101.832 87.8888 102.232 87.952 102.755C88.078 103.733 88.146 104.703 88.146 105.692C88.146 107.218 88.0036 108.157 87.768 108.56C87.5132 108.94 87.198 109.138 86.8201 109.138L85.9961 108.732C85.7609 108.45 85.5877 107.888 85.4805 107.036C85.3793 106.176 85.3225 105.193 85.3225 104.144C85.3225 103.1 85.3929 102.328 85.5465 101.81C85.6477 101.457 85.8073 101.194 85.9965 101.033L86.6621 100.806ZM79.2525 101.184L79.2173 102.492L79.2013 103.408L79.1733 105.982H76.6206C77.1302 104.882 77.535 104.076 77.8305 103.56C78.1185 103.04 78.5869 102.249 79.2525 101.184ZM45.0263 102.131C50.2141 106.286 50.5752 113.132 50.5752 113.132C48.4825 112.212 45.7827 103.704 45.7827 103.704C45.6731 102.884 44.7556 103.148 44.7556 103.148C44.8131 102.556 45.0263 102.131 45.0263 102.131ZM105.339 102.131C105.339 102.131 105.542 102.556 105.602 103.148C105.602 103.148 104.689 102.884 104.577 103.704C104.577 103.704 101.882 112.212 99.7729 113.132C99.7729 113.132 100.149 106.286 105.339 102.131ZM128.077 102.238L127.39 103.408L127.308 103.547C127.075 103.917 126.832 104.282 126.582 104.64L127.015 104.908C127.256 104.53 127.464 104.292 127.59 104.237L127.779 104.188C127.883 104.21 128.165 104.349 128.615 104.612C128.812 104.733 129.363 105.073 130.282 105.651L131.337 106.303C132.066 106.758 132.526 107.132 132.723 107.423C132.909 107.702 132.991 108.034 132.991 108.412C132.966 108.809 132.805 109.241 132.498 109.716C132.235 110.148 131.973 110.439 131.691 110.63L130.825 110.946L129.885 110.693C129.74 110.616 129.332 110.381 128.702 109.986L128.1 109.614L126.908 108.875C126.166 108.412 125.705 108.097 125.522 107.914L125.413 107.694C125.405 107.554 125.522 107.294 125.755 106.916L125.331 106.658L125.21 106.854L124.79 107.554L124.366 108.269L123.286 109.937L123.725 110.198L124.205 109.559L124.419 109.532L124.791 109.664C125.193 109.883 125.632 110.148 126.125 110.438L127.428 111.266L128.422 111.901C128.965 112.221 129.305 112.441 129.445 112.491L130.189 112.685L131.074 112.57L131.994 112.014C132.437 111.626 132.818 111.174 133.126 110.672C133.387 110.278 133.589 109.848 133.722 109.395C133.837 108.992 133.884 108.623 133.84 108.239C133.81 107.888 133.723 107.555 133.561 107.281L132.89 106.476L131.97 105.79L130.756 105.056C130.265 104.744 129.781 104.42 129.305 104.086C128.702 103.678 128.362 103.437 128.299 103.355L128.207 103.166L128.513 102.517L128.077 102.238ZM31.1575 103.848C39.727 103.938 42.4385 109.677 42.4385 109.677C36.44 105.651 31.3619 104.284 31.3619 104.284C30.3923 103.908 30.4387 104.993 30.4387 104.993C29.8964 104.703 29.3652 103.909 29.3652 103.909C29.9615 103.863 30.5595 103.842 31.1575 103.848ZM119.201 103.848C119.799 103.842 120.398 103.863 120.994 103.909C120.994 103.909 120.458 104.703 119.921 104.993C119.921 104.993 119.968 103.908 119.004 104.284C119.004 104.284 113.919 105.651 107.929 109.677C107.929 109.677 110.63 103.938 119.201 103.848ZM44.4848 104.01C48.1518 114.649 50.6472 114.826 50.6472 114.826V115.244C42.8109 112.212 44.4848 104.01 44.4848 104.01ZM105.873 104.01C105.873 104.01 107.555 112.211 99.7153 115.244V114.826C99.7153 114.826 102.197 114.649 105.873 104.01H105.873ZM30.8299 105.363C30.8299 105.363 34.4349 106.179 41.6217 110.652C41.6217 110.652 35.2973 110.937 30.8299 105.363ZM119.535 105.363C115.051 110.937 108.738 110.652 108.738 110.652C115.916 106.179 119.535 105.363 119.535 105.363ZM23.9751 106.157L23.5499 106.456C23.7991 106.85 23.9503 107.114 23.9751 107.228L23.9503 107.355C23.8875 107.454 23.6899 107.642 23.3143 107.932C22.7584 108.335 22.4436 108.576 22.3532 108.626L20.1181 110.223C19.8525 110.392 19.4281 110.688 18.8478 111.074L18.135 111.502L17.497 111.222L17.2391 111.419C17.9814 112.425 18.3846 112.978 18.4534 113.043C18.6694 113.345 19.0422 113.882 19.5953 114.679L20.1541 115.492C20.4309 115.889 20.6581 116.183 20.8281 116.374L20.9429 116.391C21.3564 116.09 21.9256 115.739 22.6376 115.342L22.3532 114.925C21.8572 115.185 21.5044 115.336 21.3044 115.402H21.1616L20.6737 114.909L19.9293 113.945C19.7082 113.626 19.4927 113.304 19.2829 112.978L19.8769 112.512L21.9752 111.02L22.578 111.789L23.1451 112.712L23.1719 113.016C23.1251 113.132 22.9067 113.326 22.5124 113.594L22.83 114.016L23.9059 113.232L25.0126 112.466L24.7114 112.057L24.0327 112.441H23.8783L23.6219 112.159C23.2795 111.702 23.0703 111.425 23.0239 111.345L22.5372 110.617L23.5499 109.886C24.1359 109.48 24.6243 109.171 25.0266 108.941L25.7106 109.828C25.9427 110.151 26.1525 110.49 26.3386 110.841L26.5469 111.283L26.483 111.419C26.4174 111.502 26.1846 111.696 25.8014 111.97L26.0754 112.368C26.5222 112.091 26.7653 111.932 26.8365 111.908L27.6069 111.477L27.6501 111.4L27.5629 111.222C27.4016 110.972 27.2372 110.725 27.0697 110.48L26.325 109.48C25.9142 108.94 25.5522 108.434 25.2262 107.984L24.7722 107.324L23.9751 106.157ZM51.1236 108.017C51.1236 108.017 51.6596 108.074 52.3583 108.351C52.3583 108.351 51.7092 108.724 52.2023 109.532C52.2023 109.532 56.4777 113.358 59.9835 117.563C59.9835 117.563 55.6126 117.196 51.1236 108.017ZM99.2338 108.017C94.7556 117.196 90.3759 117.563 90.3759 117.563C93.8845 113.358 98.1542 109.532 98.1542 109.532C98.6446 108.724 97.9902 108.351 97.9902 108.351C98.6966 108.074 99.2338 108.017 99.2338 108.017ZM53.5035 108.875C58.0364 110.119 60.0903 115.684 60.0903 115.684C59.8823 115.032 53.5035 108.875 53.5035 108.875ZM96.8559 108.875C96.8559 108.875 90.4902 115.032 90.2795 115.684C90.2795 115.684 92.3258 110.119 96.8559 108.875ZM123.014 110.129C122.613 110.704 122.194 111.266 121.757 111.814C121.354 112.351 120.987 112.791 120.655 113.2L121.071 113.526L121.586 112.951L121.737 112.879L121.877 112.904C121.986 112.956 122.257 113.132 122.679 113.428C122.862 113.564 123.285 113.882 123.926 114.366L125.944 115.93C126.264 116.182 126.621 116.462 126.982 116.794L127.412 117.177L127.467 117.29L127.401 117.476L126.982 118.062L127.42 118.399C127.748 117.915 128.095 117.444 128.458 116.986C128.918 116.391 129.354 115.838 129.773 115.322L129.354 115.005L128.872 115.553L128.708 115.654L128.543 115.632L127.863 115.186L126.974 114.526L125.016 113.019C124.955 112.986 124.544 112.641 123.758 112.014L123.287 111.638L123.019 111.345L122.994 111.242L123.032 111.055L123.438 110.458L123.014 110.129ZM60.5751 111.299C69.2194 114.219 69.1074 120.429 69.1074 120.429C67.9763 120.059 62.4078 112.986 62.4078 112.986C60.9531 112.337 61.4958 113.849 61.4958 113.849C63.5989 116.44 66.6836 120.118 66.6836 120.118C61.6518 119.149 60.5751 111.299 60.5751 111.299ZM89.7783 111.299C89.7783 111.299 88.6968 119.149 83.6706 120.118C83.6706 120.118 86.7465 116.44 88.8691 113.849C88.8691 113.849 89.3979 112.337 87.9408 112.986C87.9408 112.986 82.3779 120.059 81.244 120.429C81.244 120.429 81.1312 114.219 89.7783 111.299ZM51.8848 111.957C51.8848 111.957 53.6623 114.591 54.1526 115.142L52.7475 115.293C52.7475 115.293 52.8487 114.443 51.934 114.218L51.8848 111.957ZM98.4634 111.957L98.4222 114.218C97.5023 114.443 97.6039 115.293 97.6039 115.293L96.2099 115.142C96.6839 114.591 98.4634 111.956 98.4634 111.956V111.957ZM40.109 111.969C42.9664 111.884 45.3491 112.879 45.3491 112.879C45.4587 113.254 47.5166 114.978 47.5166 114.978C44.2624 114.002 38.0671 112.986 38.0671 112.986C36.9192 113.301 37.8451 114.106 37.8451 114.106C42.7561 115.032 47.7766 116.44 47.7766 116.44C40.2742 118.558 34.8645 113.736 34.8645 113.736C36.5088 112.46 38.3943 112.02 40.109 111.969ZM110.254 111.969C111.966 112.02 113.847 112.46 115.478 113.737C115.478 113.737 110.085 118.558 102.58 116.44C102.58 116.44 107.604 115.032 112.521 114.106C112.521 114.106 113.438 113.301 112.304 112.986C112.304 112.986 106.089 114.002 102.86 114.978C102.86 114.978 104.895 113.254 105.01 112.879C105.01 112.879 107.399 111.884 110.254 111.969H110.254ZM120.534 113.389L120.162 113.835C119.927 114.074 119.45 114.577 118.741 115.303L117.017 117.081C116.33 117.785 115.854 118.267 115.602 118.508L115.152 118.925L115.163 119.007L115.612 119.369C115.694 119.424 116.031 119.752 116.639 120.324L117.004 119.962L116.374 119.229L116.276 119.029L116.399 118.843L117.168 117.966L117.779 117.331C117.886 117.399 118.283 117.796 118.997 118.483L121.617 121.037C122.247 121.642 122.611 122.037 122.701 122.187L122.75 122.488L122.219 123.176L122.567 123.527C123.068 122.954 123.526 122.474 123.926 122.05C124.298 121.672 124.777 121.22 125.35 120.675L124.991 120.324L124.312 120.874L124.008 120.845C123.854 120.746 123.468 120.399 122.838 119.788L120.211 117.249C119.51 116.558 119.118 116.183 119.025 116.079L119.628 115.435L120.499 114.613L120.669 114.514L120.912 114.621L121.622 115.194L121.987 114.83C121.367 114.219 121.053 113.926 121.025 113.882L120.614 113.388L120.534 113.389ZM30.7539 114.851L29.3652 115.375L25.3902 116.848C24.6399 117.136 24.1359 117.319 23.8783 117.398C23.3251 117.598 22.9991 117.706 22.9171 117.725L22.6852 117.752L22.5124 117.684L22.0708 117.292L21.6908 117.632L22.6788 118.656L23.5907 119.719L23.9635 119.369C23.6515 119.007 23.4867 118.76 23.4595 118.656L23.5495 118.44C23.6455 118.35 23.9799 118.182 24.5275 117.966L25.2506 117.673L27.3545 119.979L26.7297 121.269L26.4482 121.699L26.2594 121.768C26.1854 121.732 25.9874 121.546 25.6234 121.214L25.2506 121.543L26.7297 123.108L27.8389 124.359L28.2089 124.044L28.0589 123.82L27.8453 123.52L27.8253 123.381L27.8585 123.187L28.1049 122.628L28.4744 121.782L31.3423 115.482L30.7539 114.851ZM29.1124 116.215L27.6665 119.283C27.4225 119.029 27.1165 118.736 26.8097 118.366L25.949 117.398L29.1124 116.215ZM53.0431 116.57C54.0215 116.542 55.0962 116.719 56.2589 117.196C56.2589 117.196 48.3654 119.568 47.5166 120.002C47.5166 120.002 47.0258 120.17 47.127 120.694L46.3743 120.661C46.3743 120.661 48.8041 116.692 53.0431 116.57ZM97.3223 116.57C101.562 116.692 103.983 120.661 103.983 120.661L103.232 120.694C103.336 120.171 102.86 120.002 102.86 120.002C101.986 119.569 94.1033 117.196 94.1033 117.196C95.268 116.719 96.3439 116.542 97.3223 116.57ZM33.2846 117.862L32.9726 118.35C32.9094 118.429 32.6102 118.81 32.1034 119.47L32.501 119.788L33.175 119.111L33.367 118.971L33.5746 119.083L34.5025 119.788L35.1825 120.324C35.1197 120.425 34.7721 120.869 34.1393 121.639L31.8435 124.472C31.2875 125.165 30.9403 125.565 30.7951 125.655L30.4991 125.748C30.3923 125.717 30.1488 125.565 29.7596 125.26L29.4444 125.655C30.0496 126.102 30.5787 126.49 31.0251 126.865C31.4467 127.213 31.9563 127.638 32.5534 128.15L32.8594 127.783C32.4898 127.454 32.2766 127.241 32.2494 127.147L32.2574 126.843C32.3262 126.684 32.6382 126.26 33.1942 125.575L35.5053 122.74C36.1132 121.992 36.4584 121.557 36.5652 121.456L37.2392 122C37.5525 122.249 37.8534 122.513 38.1407 122.792L38.2663 122.952L38.1655 123.203L37.6531 123.967L38.0611 124.283C38.5975 123.625 38.8771 123.268 38.9103 123.249L39.3782 122.792L39.357 122.71L38.8939 122.39C38.6255 122.17 38.0907 121.732 37.2884 121.116L35.3769 119.55C34.5965 118.925 34.0761 118.484 33.819 118.268L33.367 117.862L33.2846 117.862ZM57.878 118.116L58.4696 118.429C58.4696 118.429 54.7474 120.976 49.2913 120.694C49.2913 120.694 56.4289 118.325 57.878 118.116ZM92.4845 118.116C93.9473 118.324 101.074 120.694 101.074 120.694C95.6184 120.976 91.8818 118.429 91.8818 118.429L92.4845 118.116ZM59.7699 119.032L61.1751 119.303C59.6659 120.662 57.1137 121.026 57.1137 121.026C58.0944 120.275 59.7699 119.032 59.7699 119.032ZM90.5946 119.032C90.5946 119.032 92.2714 120.275 93.2437 121.026C93.2437 121.026 90.699 120.662 89.1843 119.303L90.5946 119.032ZM114.854 119.111C114.343 119.594 113.816 120.06 113.273 120.508C112.823 120.886 112.368 121.258 111.906 121.622L112.254 122.036L112.871 121.568L113.04 121.543L113.15 121.596C113.265 121.672 113.484 121.896 113.841 122.28C113.999 122.46 114.334 122.856 114.854 123.458L116.508 125.406C116.774 125.737 117.051 126.09 117.344 126.468L117.678 126.95L117.708 127.057L117.609 127.221L117.081 127.714L117.426 128.142C117.81 127.783 118.242 127.396 118.735 126.964C119.271 126.502 119.819 126.055 120.378 125.622L120.041 125.22L119.449 125.657L119.261 125.718L119.119 125.657L118.552 125.096L117.809 124.234L116.22 122.365C116.168 122.318 115.828 121.897 115.185 121.124L114.818 120.661L114.601 120.311L114.599 120.204L114.682 120.043L115.208 119.535L114.854 119.111ZM111.756 121.896L110.674 122.641L109.362 123.477L109.653 123.905L110.233 123.581L110.436 123.502L110.55 123.512L110.666 123.625L110.746 123.737C110.79 123.899 110.874 124.233 111 124.74C111.165 125.482 111.252 125.869 111.264 125.967L111.967 129.506L108.614 127.213L108.513 127.126L107.982 126.761C107.401 126.358 107.073 126.106 107.007 126.002L106.963 125.836L107.075 125.674L107.661 125.22L107.371 124.784L105.563 126.002C105.387 126.131 104.881 126.441 104.051 126.95L104.341 127.397L105.04 127.065L105.632 127.315C105.936 127.488 106.81 128.076 108.264 129.054L110.123 130.314C110.814 130.794 111.537 131.281 112.284 131.807L113.065 131.3C112.887 130.583 112.635 129.322 112.307 127.547L111.923 125.451L111.723 124.35C111.548 123.477 111.504 122.956 111.543 122.838L112.046 122.337L111.756 121.896ZM75.1799 122.27C80.0276 122.39 84.2214 123.896 84.2214 123.896C80.0936 124.79 75.7939 124.784 75.2159 124.759H75.1499C74.5639 124.784 70.2602 124.79 66.1384 123.896C66.1384 123.896 70.3318 122.39 75.1799 122.27ZM39.5346 122.954L39.2419 123.398C39.6034 123.65 39.8086 123.809 39.855 123.864L39.9454 123.995L39.9126 124.14C39.8714 124.269 39.721 124.537 39.4638 124.983C39.3322 125.197 39.0639 125.638 38.6255 126.309L37.2392 128.446C37.0032 128.791 36.7432 129.163 36.4584 129.56L36.1132 130.007L36.0064 130.062L35.8176 130.007C35.76 130.005 35.5469 129.873 35.1829 129.67L34.8949 130.117C35.3389 130.38 35.832 130.668 36.3824 131.046C37.0124 131.451 37.6067 131.846 38.1407 132.229L38.4387 131.782L37.8451 131.342L37.7383 131.177V131.031L38.1295 130.311L38.7243 129.355L40.0574 127.3C40.093 127.232 40.3942 126.792 40.9534 125.967L41.3013 125.476L41.5641 125.164L41.6709 125.104L41.8437 125.142L42.4877 125.501L42.7885 125.055C42.1768 124.698 41.5731 124.327 40.9778 123.943C40.4246 123.581 39.9458 123.247 39.5346 122.954ZM42.9449 125.367L42.7097 125.838L43.3256 126.273C43.3776 126.358 43.4132 126.564 43.4132 126.92C43.394 127.268 43.3336 128.32 43.1996 130.078L43.0236 132.324C42.9557 133.132 42.8869 134.004 42.8021 134.921L43.6348 135.335C44.1608 134.839 45.1195 133.993 46.5107 132.829L48.1462 131.45L48.9873 130.758C49.6833 130.164 50.0937 129.854 50.2333 129.834C50.3124 129.829 50.5484 129.884 50.9016 130.029L51.1484 129.56L49.9485 128.993L48.5925 128.252L48.3514 128.717L48.9233 129.07L49.1273 129.194L49.1537 129.309L49.1269 129.457L49.0417 129.591C48.9241 129.72 48.6745 129.963 48.2938 130.311C47.757 130.804 47.4558 131.073 47.3738 131.128L44.646 133.513L44.9939 129.452L45.0019 129.342C45.0131 129.303 45.0259 129.078 45.0535 128.681C45.1191 127.977 45.1775 127.572 45.2403 127.465L45.3471 127.353L45.5495 127.361L46.2399 127.637L46.4811 127.159L44.514 126.222C44.3252 126.118 43.81 125.838 42.9449 125.367ZM102.814 127.616C102.474 127.66 102.03 127.838 101.46 128.114C101.164 128.262 100.798 128.446 100.351 128.706C100.091 128.851 99.757 129.021 99.3818 129.207C98.9298 129.415 98.5978 129.602 98.3318 129.72C97.8335 129.939 97.5439 130.092 97.4559 130.134L97.6663 130.574C98.1486 130.38 98.425 130.275 98.5458 130.275L98.669 130.331C98.7454 130.421 98.9098 130.668 99.137 131.128L99.729 132.272L100.742 134.28L101.474 135.902L101.75 136.578L101.775 136.762L101.701 136.855C101.643 136.915 101.408 137.066 101.006 137.285L101.244 137.776C101.712 137.51 102.238 137.22 102.794 136.951C103.428 136.637 104.067 136.334 104.711 136.042L104.484 135.562C104.118 135.726 103.9 135.828 103.829 135.853H103.635L103.52 135.828L103.265 135.45C103.219 135.36 102.972 134.932 102.608 134.187C102.296 133.595 101.991 133.014 101.726 132.453C101.556 132.119 101.219 131.413 100.742 130.38C100.513 129.914 100.381 129.604 100.315 129.486L100.828 129.177C101.22 128.969 101.501 128.865 101.684 128.852L102.496 129.021L103.164 129.744L103.375 130.758L103.096 131.593C102.929 131.807 102.616 132.02 102.176 132.218L102.197 132.415L102.715 132.617C103.126 132.812 103.614 133.118 104.221 133.496L106.338 134.847L106.637 135.08L107.489 134.645C107.73 134.505 108.149 134.327 108.716 134.058L108.488 133.595L108.126 133.718L107.87 133.692C107.788 133.65 107.513 133.522 107.053 133.289C107.029 133.273 106.809 133.16 106.417 132.936L104.941 132.07L104.821 132.007L104.47 131.782L103.901 131.429C104.369 130.941 104.643 130.44 104.749 129.963C104.831 129.456 104.777 128.994 104.56 128.548C104.368 128.172 104.116 127.928 103.788 127.75L102.814 127.616ZM51.4276 129.678L51.2324 130.182C51.646 130.366 51.8684 130.46 51.934 130.495L52.0524 130.618V130.758C52.05 130.884 51.9536 131.21 51.7892 131.692C51.71 131.911 51.5316 132.399 51.244 133.158L50.3368 135.529C50.1945 135.921 50.0253 136.338 49.8089 136.781L49.5677 137.312L49.4689 137.362H49.2997C49.2173 137.362 48.9981 137.294 48.5929 137.164L48.401 137.644C48.8937 137.82 49.4393 138.008 50.0557 138.241C50.7596 138.501 51.4276 138.77 52.0276 139.041L52.2135 138.529C51.8492 138.375 51.6216 138.272 51.548 138.236L51.4052 138.104L51.3804 137.953C51.3884 137.819 51.4632 137.551 51.6164 137.164L51.9884 136.121L52.8575 133.82C52.8931 133.746 53.0923 133.258 53.4511 132.324L53.6871 131.766L53.8815 131.404L53.977 131.342H54.1578C54.229 131.342 54.4738 131.412 54.8626 131.549L55.0514 131.051C54.4158 130.843 53.7667 130.599 53.0631 130.349C52.4411 130.092 51.8992 129.884 51.4276 129.678ZM96.7819 130.286L96.5767 130.316C96.1519 130.44 95.8488 130.533 95.7088 130.574L94.5472 130.99C93.9005 131.22 93.3141 131.412 92.7857 131.593L92.0194 131.836L90.6714 132.234L90.8246 132.73C91.2878 132.618 91.5866 132.552 91.699 132.576L91.8138 132.632C91.8826 132.711 92.0054 132.968 92.1558 133.406C92.2923 133.776 92.4265 134.147 92.5585 134.518L93.3965 137.14C93.4981 137.433 93.6405 137.918 93.8269 138.594C93.9309 138.961 94.0045 139.23 94.0349 139.405L93.5725 139.926L93.6813 140.241C94.8644 139.836 95.5112 139.597 95.5988 139.572C95.9524 139.46 96.5955 139.265 97.5019 138.961L98.447 138.69C98.7983 138.567 99.1463 138.435 99.4906 138.293L99.5318 138.186C99.3758 137.696 99.2138 137.049 99.055 136.274L98.5682 136.414C98.6562 136.953 98.6994 137.332 98.6962 137.542L98.6554 137.654L98.0422 138.002C97.7023 138.142 97.3247 138.27 96.8999 138.418C96.4759 138.558 96.0867 138.673 95.7744 138.764L95.5196 138.038L94.7144 135.586C94.9556 135.482 95.2484 135.378 95.6264 135.25C95.9727 135.144 96.3237 135.055 96.6783 134.982L96.9843 135.053C97.0775 135.121 97.2039 135.395 97.3407 135.853L97.8339 135.682L97.3951 134.436L97.0007 133.143L96.5303 133.286C96.6399 133.65 96.6835 133.878 96.6835 134.058L96.6555 134.195L96.2919 134.366C95.7552 134.554 95.4312 134.675 95.3408 134.702L94.506 134.957L94.1197 133.754C93.8897 133.083 93.7361 132.527 93.6517 132.058C94.0101 131.935 94.3468 131.796 94.6996 131.678C95.0452 131.547 95.4372 131.453 95.8372 131.38L96.3299 131.33L96.4399 131.404C96.5055 131.505 96.6151 131.782 96.7687 132.234L97.2227 132.075C97.1047 131.557 97.0147 131.3 97.0007 131.22L96.8447 130.366L96.7819 130.286ZM55.533 131.177L55.4622 131.22L55.3638 131.796C55.3278 131.894 55.2094 132.344 54.9958 133.158L55.4806 133.291L55.8369 132.407L55.9689 132.234H56.2149C56.5301 132.324 56.9189 132.398 57.3297 132.527L58.1656 132.765C58.1408 132.888 57.9952 133.425 57.7076 134.37L56.6837 137.884C56.4505 138.723 56.2861 139.23 56.1905 139.386L55.9385 139.572C55.8513 139.588 55.5602 139.54 55.0782 139.419L54.9382 139.896C55.6806 140.074 56.3221 140.238 56.8725 140.394C57.4037 140.536 58.028 140.75 58.7756 141.013L58.9104 140.522C58.4504 140.377 58.1788 140.265 58.1048 140.194L57.9952 139.912C58.0032 139.712 58.124 139.216 58.368 138.376L59.398 134.864C59.6667 133.93 59.8255 133.387 59.8827 133.258L60.7067 133.511C61.1615 133.651 61.5422 133.765 61.857 133.878L62.0462 133.982V134.261L61.8714 135.135L62.345 135.294C62.5914 134.47 62.7226 134.039 62.7362 134.001L62.989 133.406L62.9418 133.338L62.389 133.223C62.0494 133.133 61.3838 132.938 60.4007 132.67L58.0392 131.971C57.0861 131.692 56.4401 131.503 56.1033 131.391L55.533 131.177ZM88.4696 132.697C88.048 132.696 87.6272 132.733 87.2124 132.809C86.8156 132.894 86.4277 133.016 86.0537 133.174C85.6869 133.346 85.3633 133.562 85.0977 133.833C84.8318 134.099 84.643 134.439 84.5306 134.852C84.4046 135.25 84.3934 135.702 84.4702 136.146L84.813 136.995L85.4293 137.62C85.6621 137.789 85.9685 137.879 86.3385 137.917C86.5825 137.934 87.072 137.954 87.8224 137.973C88.3568 137.984 88.7235 138.022 88.9399 138.104L89.4771 138.446L89.7319 139.071L89.6827 139.906L89.1567 140.583C88.8827 140.78 88.5464 140.909 88.1736 140.986C87.7436 141.065 87.3108 141.066 86.9164 140.931C86.5085 140.816 86.2125 140.651 86.0045 140.427C85.8729 140.016 85.7717 139.663 85.7333 139.375L85.2505 139.462C85.4041 140.399 85.4809 141.098 85.4425 141.585C85.9493 141.711 86.4013 141.796 86.8065 141.816C87.1984 141.829 87.6444 141.796 88.1428 141.706C88.8027 141.571 89.3619 141.358 89.8107 141.084L90.5815 140.358L91.0878 139.444C91.2274 139.008 91.2466 138.545 91.1454 138.022L90.869 137.271L90.4879 136.732L89.9211 136.42L89.0715 136.28C88.9483 136.275 88.6636 136.28 88.2416 136.28C87.8088 136.28 87.4856 136.299 87.242 136.28L86.4941 136.159L86.0589 135.842L85.8073 135.214C85.7333 134.852 85.8265 134.499 86.0701 134.17C86.3141 133.833 86.7029 133.617 87.2536 133.521C87.6204 133.444 87.9736 133.444 88.3104 133.521L89.0447 133.869C89.1295 134.036 89.2055 134.37 89.3179 134.836L89.8027 134.737C89.7315 134.332 89.7019 133.992 89.6663 133.746L89.6415 132.954L89.5623 132.826C89.2639 132.73 88.8887 132.697 88.4696 132.697ZM65.7928 133.388L65.0448 134.67L62.8214 138.271C62.4078 138.961 62.115 139.418 61.975 139.651C61.6574 140.133 61.4686 140.419 61.4194 140.504L61.2471 140.662L61.0663 140.72L60.4827 140.67L60.3947 141.183L61.7914 141.367L63.1749 141.646L63.2489 141.147C62.7806 141.064 62.501 140.969 62.4074 140.908L62.3482 140.67C62.3838 140.536 62.523 140.194 62.8214 139.698L63.2077 139.008L66.3024 139.514L66.6064 140.931L66.6504 141.451L66.5276 141.61C66.4644 141.626 66.1796 141.61 65.6976 141.556L65.6124 142.057L67.7323 142.371L69.395 142.69L69.4854 142.177L69.2194 142.103L68.8722 142.001L68.7622 141.919L68.669 141.736L68.5291 141.147L68.2891 140.266L66.6508 133.54L65.7928 133.388ZM74.5191 134.091C74.1003 134.089 73.6872 134.102 73.2928 134.201C72.9068 134.28 72.5608 134.456 72.2348 134.645C71.9063 134.867 71.6427 135.172 71.4709 135.529C71.2681 135.921 71.1749 136.327 71.1669 136.781L71.3125 137.696L71.7861 138.419C71.9917 138.638 72.2709 138.797 72.6244 138.893C72.8624 138.962 73.328 139.081 74.0676 139.265C74.5851 139.374 74.9419 139.484 75.1419 139.597L75.5823 140.041L75.7055 140.72L75.5003 141.531L74.8459 142.087C74.5283 142.226 74.1859 142.287 73.8024 142.276C73.3735 142.276 72.9513 142.169 72.5748 141.964C72.1997 141.78 71.9537 141.556 71.7973 141.293C71.7533 140.876 71.7253 140.503 71.7337 140.194H71.2305C71.2169 141.147 71.1373 141.84 71.0085 142.306C71.4717 142.538 71.8985 142.726 72.2872 142.805C72.668 142.903 73.126 142.969 73.6216 142.969C74.2983 142.969 74.8951 142.89 75.3719 142.69L76.2758 142.141L76.9658 141.347C77.1934 140.955 77.2966 140.504 77.305 139.97L77.2062 139.181L76.9022 138.575L76.437 138.162L75.6267 137.844C75.5115 137.805 75.2319 137.772 74.8183 137.696C74.4127 137.61 74.068 137.542 73.8352 137.485L73.1308 137.209L72.7752 136.808L72.6488 136.146C72.6488 135.768 72.8048 135.45 73.1256 135.176C73.4296 134.908 73.8512 134.767 74.4123 134.778C74.7987 134.789 75.1499 134.853 75.4459 134.995L76.103 135.477C76.1334 135.682 76.147 136.008 76.1526 136.471L76.659 136.499C76.6806 136.08 76.703 135.754 76.7278 135.483L76.8642 134.719L76.815 134.571C76.5302 134.415 76.1766 134.292 75.7795 134.201C75.3629 134.132 74.9417 134.096 74.5195 134.091H74.5191ZM65.3524 135.468L66.1216 138.796C65.7464 138.736 65.336 138.688 64.8789 138.594C64.4518 138.524 64.0251 138.451 63.5989 138.376L65.3524 135.468Z" fill="#C2072E"/>
</svg>
